<svg xmlns="http://www.w3.org/2000/svg" xmlns:xlink="http://www.w3.org/1999/xlink" id="ea833470-0408-4215-8e44-076bb47f1dc7" viewBox="0 0 64 64" data-name="Glyph copy"><linearGradient id="a899046e-c4e5-49c1-bae7-57f50bc45f9f" gradientUnits="userSpaceOnUse" x1="4" x2="60" y1="32" y2="32"><stop offset="0" stop-color="#ffa68d"></stop><stop offset="1" stop-color="#fd3a84"></stop></linearGradient><path d="m50.96534 33.13354h-37.93068a3.64073 3.64073 0 0 0 -3.63066 3.63062v7a4.53648 4.53648 0 0 0 1.32537 3.20133 4.53233 4.53233 0 0 0 3.416 1.86657l12.08662.00009a3.745 3.745 0 0 0 3.612-2.78131l.57866-2.212a1.63365 1.63365 0 0 1 3.15467.00007l.57867 2.21193a3.745 3.745 0 0 0 3.612 2.78131h12.08668a3.69821 3.69821 0 0 0 2.64135-1.092 5.26415 5.26415 0 0 0 2.0999-3.97606l.0001-7a3.64073 3.64073 0 0 0 -3.63068-3.63055zm-22.97866 11.05063a1.64117 1.64117 0 0 1 -1.63334 1.63333h-12.13334a1.63509 1.63509 0 0 1 -1.63333-1.63333v-6.40265a1.63509 1.63509 0 0 1 1.63333-1.63333h12.13334a1.64117 1.64117 0 0 1 1.63334 1.63333zm8.02664-6.40265a1.64117 1.64117 0 0 1 1.63334-1.63333h12.13334a1.63509 1.63509 0 0 1 1.63333 1.63333v6.40265a1.63509 1.63509 0 0 1 -1.63333 1.63333h-12.13334a1.64117 1.64117 0 0 1 -1.63334-1.63333zm-28.476 5.98264a6.15749 6.15749 0 0 0 .26136 1.81067l-2.59468-1.74533a2.74061 2.74061 0 0 1 -1.204-2.26799v-3.556a2.71954 2.71954 0 0 1 1.50265-2.436l2.66-1.344a5.5531 5.5531 0 0 0 -.62539 2.53864c-.00803.07998.01126 7.20553.00005 7.00001zm52.46268-5.75865v3.556a2.74061 2.74061 0 0 1 -1.204 2.268l-2.59471 1.74532a7.46429 7.46429 0 0 0 .26138-2.42663v-6.384a5.67279 5.67279 0 0 0 -.616-2.53864l2.65069 1.344a2.71954 2.71954 0 0 1 1.50264 2.43595zm-46.49867-6.73864 6.64534-14.34533a2.75083 2.75083 0 0 1 4.01333-1.33472l4.312 2.744a1.28717 1.28717 0 0 1 .60677 1.17608c-.23717 1.86713-3.18217 1.73938-4.3961.91457l-1.43731-.91464-3.836 11.76zm22.0267-12.936 4.312-2.744a2.74359 2.74359 0 0 1 2.33334-.28 2.7156 2.7156 0 0 1 1.68933 1.63333l6.636 14.3267h-5.908l-3.836-11.76-1.43731.91464a3.80127 3.80127 0 0 1 -3.66805.196 1.32 1.32 0 0 1 -.12134-2.28671z" fill="url(#a899046e-c4e5-49c1-bae7-57f50bc45f9f)"></path></svg>